<?xml version="1.0" encoding="utf-8"?>
<svg version="1.1" xmlns:xlink="http://www.w3.org/1999/xlink" width="20px" height="20px" xmlns="http://www.w3.org/2000/svg">
  <g transform="matrix(1 0 0 1 -10 -15 )">
    <path d="M 20 15  C 25.6 15  30 19.4  30 25  C 30 30.6  25.6 35  20 35  C 14.4 35  10 30.6  10 25  C 10 19.4  14.4 15  20 15  Z " fill-rule="nonzero" fill="#ffffff" stroke="none" />
    <path d="M 20 15.5  C 25.32 15.5  29.5 19.68  29.5 25  C 29.5 30.32  25.32 34.5  20 34.5  C 14.68 34.5  10.5 30.32  10.5 25  C 10.5 19.68  14.68 15.5  20 15.5  Z " stroke-width="1" stroke="#1890ff" fill="none" />
  </g>
</svg>