<?xml version="1.0" encoding="utf-8"?>
<svg version="1.1" xmlns:xlink="http://www.w3.org/1999/xlink" width="12px" height="12px" viewBox="144 3034.5  12 12" xmlns="http://www.w3.org/2000/svg">
  <path d="M 150 3034.5  C 153.36 3034.5  156 3037.14  156 3040.5  C 156 3043.86  153.36 3046.5  150 3046.5  C 146.64 3046.5  144 3043.86  144 3040.5  C 144 3037.14  146.64 3034.5  150 3034.5  Z " fill-rule="nonzero" fill="#ffffff" stroke="none" />
  <path d="M 150 3035  C 153.08 3035  155.5 3037.42  155.5 3040.5  C 155.5 3043.58  153.08 3046  150 3046  C 146.92 3046  144.5 3043.58  144.5 3040.5  C 144.5 3037.42  146.92 3035  150 3035  Z " stroke-width="1" stroke="#797979" fill="none" />
  <path d="M 150 3043.5  C 148.32 3043.5  147 3042.18  147 3040.5  C 147 3038.82  148.32 3037.5  150 3037.5  C 151.68 3037.5  153 3038.82  153 3040.5  C 153 3042.18  151.68 3043.5  150 3043.5  " fill-rule="nonzero" fill="#797979" stroke="none" />
</svg>