<?xml version="1.0" encoding="utf-8"?>
<svg version="1.1" xmlns:xlink="http://www.w3.org/1999/xlink" width="12px" height="12px" viewBox="144 2284.5  12 12" xmlns="http://www.w3.org/2000/svg">
  <path d="M 150 2284.5  C 153.36 2284.5  156 2287.14  156 2290.5  C 156 2293.86  153.36 2296.5  150 2296.5  C 146.64 2296.5  144 2293.86  144 2290.5  C 144 2287.14  146.64 2284.5  150 2284.5  Z " fill-rule="nonzero" fill="#f0f0f0" stroke="none" />
  <path d="M 150 2285  C 153.08 2285  155.5 2287.42  155.5 2290.5  C 155.5 2293.58  153.08 2296  150 2296  C 146.92 2296  144.5 2293.58  144.5 2290.5  C 144.5 2287.42  146.92 2285  150 2285  Z " stroke-width="1" stroke="#797979" fill="none" />
  <path d="M 150 2293.5  C 148.32 2293.5  147 2292.18  147 2290.5  C 147 2288.82  148.32 2287.5  150 2287.5  C 151.68 2287.5  153 2288.82  153 2290.5  C 153 2292.18  151.68 2293.5  150 2293.5  " fill-rule="nonzero" fill="#797979" stroke="none" />
</svg>