<?xml version="1.0" encoding="utf-8"?>
<svg version="1.1" xmlns:xlink="http://www.w3.org/1999/xlink" width="12px" height="12px" viewBox="185 2284.5  12 12" xmlns="http://www.w3.org/2000/svg">
  <path d="M 191 2284.5  C 194.36 2284.5  197 2287.14  197 2290.5  C 197 2293.86  194.36 2296.5  191 2296.5  C 187.64 2296.5  185 2293.86  185 2290.5  C 185 2287.14  187.64 2284.5  191 2284.5  Z " fill-rule="nonzero" fill="#f0f0f0" stroke="none" />
  <path d="M 191 2285  C 194.08 2285  196.5 2287.42  196.5 2290.5  C 196.5 2293.58  194.08 2296  191 2296  C 187.92 2296  185.5 2293.58  185.5 2290.5  C 185.5 2287.42  187.92 2285  191 2285  Z " stroke-width="1" stroke="#797979" fill="none" />
  <path d="M 191 2293.5  C 189.32 2293.5  188 2292.18  188 2290.5  C 188 2288.82  189.32 2287.5  191 2287.5  C 192.68 2287.5  194 2288.82  194 2290.5  C 194 2292.18  192.68 2293.5  191 2293.5  " fill-rule="nonzero" fill="#797979" stroke="none" />
</svg>