<?xml version="1.0" encoding="utf-8"?>
<svg version="1.1" xmlns:xlink="http://www.w3.org/1999/xlink" width="12px" height="12px" viewBox="1877 318.5  12 12" xmlns="http://www.w3.org/2000/svg">
  <path d="M 1883 318.5  C 1886.36 318.5  1889 321.14  1889 324.5  C 1889 327.86  1886.36 330.5  1883 330.5  C 1879.64 330.5  1877 327.86  1877 324.5  C 1877 321.14  1879.64 318.5  1883 318.5  Z " fill-rule="nonzero" fill="#f0f0f0" stroke="none" />
  <path d="M 1883 319  C 1886.08 319  1888.5 321.42  1888.5 324.5  C 1888.5 327.58  1886.08 330  1883 330  C 1879.92 330  1877.5 327.58  1877.5 324.5  C 1877.5 321.42  1879.92 319  1883 319  Z " stroke-width="1" stroke="#797979" fill="none" />
  <path d="M 1883 327.5  C 1881.32 327.5  1880 326.18  1880 324.5  C 1880 322.82  1881.32 321.5  1883 321.5  C 1884.68 321.5  1886 322.82  1886 324.5  C 1886 326.18  1884.68 327.5  1883 327.5  " fill-rule="nonzero" fill="#797979" stroke="none" />
</svg>