<?xml version="1.0" encoding="utf-8"?>
<svg version="1.1" xmlns:xlink="http://www.w3.org/1999/xlink" width="12px" height="12px" viewBox="1224 282.5  12 12" xmlns="http://www.w3.org/2000/svg">
  <path d="M 1230 282.5  C 1233.36 282.5  1236 285.14  1236 288.5  C 1236 291.86  1233.36 294.5  1230 294.5  C 1226.64 294.5  1224 291.86  1224 288.5  C 1224 285.14  1226.64 282.5  1230 282.5  Z " fill-rule="nonzero" fill="#f0f0f0" stroke="none" />
  <path d="M 1230 283  C 1233.08 283  1235.5 285.42  1235.5 288.5  C 1235.5 291.58  1233.08 294  1230 294  C 1226.92 294  1224.5 291.58  1224.5 288.5  C 1224.5 285.42  1226.92 283  1230 283  Z " stroke-width="1" stroke="#797979" fill="none" />
  <path d="M 1230 291.5  C 1228.32 291.5  1227 290.18  1227 288.5  C 1227 286.82  1228.32 285.5  1230 285.5  C 1231.68 285.5  1233 286.82  1233 288.5  C 1233 290.18  1231.68 291.5  1230 291.5  " fill-rule="nonzero" fill="#797979" stroke="none" />
</svg>