<?xml version="1.0" encoding="utf-8"?>
<svg version="1.1" xmlns:xlink="http://www.w3.org/1999/xlink" width="12px" height="12px" viewBox="1877 282.5  12 12" xmlns="http://www.w3.org/2000/svg">
  <path d="M 1883 282.5  C 1886.36 282.5  1889 285.14  1889 288.5  C 1889 291.86  1886.36 294.5  1883 294.5  C 1879.64 294.5  1877 291.86  1877 288.5  C 1877 285.14  1879.64 282.5  1883 282.5  Z " fill-rule="nonzero" fill="#ffffff" stroke="none" />
  <path d="M 1883 283  C 1886.08 283  1888.5 285.42  1888.5 288.5  C 1888.5 291.58  1886.08 294  1883 294  C 1879.92 294  1877.5 291.58  1877.5 288.5  C 1877.5 285.42  1879.92 283  1883 283  Z " stroke-width="1" stroke="#797979" fill="none" />
  <path d="M 1883 291.5  C 1881.32 291.5  1880 290.18  1880 288.5  C 1880 286.82  1881.32 285.5  1883 285.5  C 1884.68 285.5  1886 286.82  1886 288.5  C 1886 290.18  1884.68 291.5  1883 291.5  " fill-rule="nonzero" fill="#797979" stroke="none" />
</svg>