<?xml version="1.0" encoding="utf-8"?>
<svg version="1.1" xmlns:xlink="http://www.w3.org/1999/xlink" width="12px" height="12px" viewBox="1918 282.5  12 12" xmlns="http://www.w3.org/2000/svg">
  <path d="M 1924 282.5  C 1927.36 282.5  1930 285.14  1930 288.5  C 1930 291.86  1927.36 294.5  1924 294.5  C 1920.64 294.5  1918 291.86  1918 288.5  C 1918 285.14  1920.64 282.5  1924 282.5  Z " fill-rule="nonzero" fill="#f0f0f0" stroke="none" />
  <path d="M 1924 283  C 1927.08 283  1929.5 285.42  1929.5 288.5  C 1929.5 291.58  1927.08 294  1924 294  C 1920.92 294  1918.5 291.58  1918.5 288.5  C 1918.5 285.42  1920.92 283  1924 283  Z " stroke-width="1" stroke="#797979" fill="none" />
  <path d="M 1924 291.5  C 1922.32 291.5  1921 290.18  1921 288.5  C 1921 286.82  1922.32 285.5  1924 285.5  C 1925.68 285.5  1927 286.82  1927 288.5  C 1927 290.18  1925.68 291.5  1924 291.5  " fill-rule="nonzero" fill="#797979" stroke="none" />
</svg>