<?xml version="1.0" encoding="utf-8"?>
<svg version="1.1" xmlns:xlink="http://www.w3.org/1999/xlink" width="41px" height="40px" xmlns="http://www.w3.org/2000/svg">
  <g transform="matrix(1 0 0 1 -51 -846 )">
    <path d="M 40 5.21079692890995  C 40.0202393083706 2.65944066354745  37.9534582645711 0.589985878478308  35.4021028732171 1  L 4.61714651474331 1  C 2.06579110857874 0.589985857559637  -0.000989958311716104 2.65944064875581  0 5.21079692890995  L 0 26.7734072037915  C -0.000989979249514351 29.3247634987482  2.06579109376797 31.3942183130512  4.61714651474331 31  L 15.3924785160333 31  L 15.3924785160333 32.9375661800948  C 15.3944490326476 33.7878413721343  16.0832430525973 34.4766353980605  16.933518237259 34.4786059146919  L 23.0857311127867 34.4786059146919  C 23.9212912203441 34.4422263129272  24.5903912325633 33.7731262949023  24.6267708340124 32.9375661800948  L 24.6267708340124 31  L 35.4021028732171 31  C 37.9534582793818 31.3942182921325  40.0202393293084 29.3247634839566  40 26.7734072037915  L 40 5.21079692890995  Z M 34.6256099889594 24  L 5.39961240368851 24  C 4.59194967118186 24.6875070392607  3.9375373771141 24.0330947395147  4 23.225432  L 4 5.67669266350711  C 3.9375373771141 4.86902992399242  4.59194967118185 4.21461762424638  5.39961240368851 5  L 34.6256099889594 5  C 35.431211599766 4.21724460806497  36.0823799137358 4.87108165947068  36 5.67669266350711  L 36 23.225432  C 36.0823799137358 24.0310430040364  35.431211599766 24.6848800554421  34.6256099889594 24  Z M 34.7988276177881 29.7121341421801  C 34.7978330501998 29.7121359994421  34.7968384810946 29.7121369280738  34.7958439117721 29.7121369280738  C 33.9134124968008 29.7121369280738  33.1980604943563 28.9967849194222  33.1980604943563 28.1143534967941  C 33.1980604943563 27.2319220741661  33.9134124968008 26.5165700655145  34.7958439117721 26.5165700655145  C 35.6771081624293 26.5165700655145  36.391975778198 27.2301014925533  36.3936245328602 28.1113642085308  C 36.3936319897928 28.1133552013956  36.3936357182689 28.1153462064803  36.3936357182689 28.1173372133094  C 36.3936357182689 28.9981192362233  35.6796208184683 29.7121341422193  34.7988388031968 29.7121341422193  Z M 34.9839912939066 38.540261042654  C 34.9840025367738 39.0195641685871  34.5971949529723 39.4090393864526  34.1179030739334 39  L 5.8356430349762 39  C 5.35635115593732 39.4090393864526  4.96954357213588 39.0195641685871  4.96955481500303 38.540261042654  L 4.96955481500303 37.584577478673  C 4.97316131094041 36.4578820065102  5.88563294626592 35.5454103632673  7.01232840865245 35  L 32.9412177002572 35  C 34.0679131626437 35.5454103632673  34.9803847979692 36.4578820065102  34.9839912939066 37.584577478673  L 34.9839912939066 38.540261042654  Z " fill-rule="nonzero" fill="#0097e8" stroke="none" transform="matrix(1 0 0 1 51 846 )" />
  </g>
</svg>