<?xml version="1.0" encoding="utf-8"?>
<svg version="1.1" xmlns:xlink="http://www.w3.org/1999/xlink" width="35px" height="38px" xmlns="http://www.w3.org/2000/svg">
  <g transform="matrix(1 0 0 1 -53 -917 )">
    <path d="M 34.571869140625 1  L 17.5 1  L 0.428130859375001 0.71875  L 3.7328095703125 33.6503271484375  L 17.5 37.28125  L 31.2671904296875 33.6503271484375  L 34.571869140625 1  Z M 28.1846669921875 8  L 27.91467578125 12  L 11.683744140625 12  L 11.9537353515625 16  L 27.37324609375 16  L 26.2904248046875 27.984548828125  L 17.36212890625 30.2781220703125  L 8.7066806640625 27.984548828125  L 8.1652890625 21.6156279296875  L 12.4937177734375 21.6156279296875  L 12.763708984375 24.67282421875  L 17.3621669921875 25.946875  L 22.232025390625 24.67282421875  L 22.5020166015625 19  L 7.89670703125 19  L 6.8138857421875 8  L 28.1846669921875 8  Z " fill-rule="nonzero" fill="#ff952d" stroke="none" transform="matrix(1 0 0 1 53 917 )" />
  </g>
</svg>