<?xml version="1.0" encoding="utf-8"?>
<svg version="1.1" xmlns:xlink="http://www.w3.org/1999/xlink" width="34px" height="35px" xmlns="http://www.w3.org/2000/svg">
  <g transform="matrix(1 0 0 1 -54 -989 )">
    <path d="M 33.5498 17.481  C 33.5498 8.34079999999999  26.1404 0.9312  17 0.9312  C 7.8598 0.9312  0.450200000000001 8.3408  0.450200000000001 17.481  C 0.450200000000001 26.6212  7.8598 34.0308  17 34.0308  C 26.1404 34.0308  33.5498 26.6212  33.5498 17.481  Z M 5.9894 18.9436  C 5.70075613460117 18.9440427006607  5.46628236449988 18.710642856224  5.4654 18.422  L 5.4654 15.2924  C 5.46683160519509 15.0038625490571  5.70125908436009 14.770776188194  5.9898 14.771  L 11.5212 14.771  L 9.1128 18.9436  L 5.9894 18.9436  Z M 9.3838 24.2772  C 9.6332 24.4208  9.6432 24.6712  9.4056 24.8318  L 7.6404 26.028  C 7.4028 26.1896  7.2348 26.0872  7.2678 25.8022  L 7.5034 23.7558  C 7.5366 23.4708  7.7676 23.354  8.0176 23.497  L 9.3838 24.2772  Z M 10.5468 23.487  C 10.403 23.7358  10.0792 23.8208  9.8296 23.6786  L 8.4636 22.8982  C 8.30142062391074 22.805820349089  8.20127697830587 22.6335266139659  8.20127697830587 22.4468821660679  C 8.20127697830587 22.3554803684581  8.22539665409243 22.2656970423592  8.2712 22.1866  L 14.5972 11.221  C 14.7428038919017 10.9708081660698  15.0630521987082 10.8850512973015  15.3142 11.029  L 16.6802 11.8078  C 16.9295381674856 11.9520710319374  17.0155830195605 12.2706067511972  16.8728 12.5208  L 10.5468 23.487  Z M 20.3954 18.9438  L 14.6446 18.9438  L 17.053 14.7712  L 18.44 14.7712  L 20.3954 18.9438  Z M 23.6102 20.159  C 23.246 20.3102  23.0348 20.4602  22.488 20.1892  C 21.9414 19.9164  19.2176 13.6602  18.5194 12.028  C 17.821 10.3954  15.7112 6.0496  16.3936 5.7118  C 16.8792 5.4692  18.6222 8.8912  19.9284 10.9452  C 21.2326 13  23.961 18.2964  24.2966 18.8994  C 24.6308 19.5042  23.9752 20.008  23.6102 20.159  Z M 25.0734 23.2582  C 24.8064 23.4202  24.4484 23.3322  24.2786 23.0654  L 23.4552 21.7706  C 23.2852 21.502  23.3734 21.1692  23.6494 21.0272  L 24.434 20.6256  C 24.7104 20.4848  25.0566 20.5988  25.204 20.8804  L 25.8536 22.1234  C 26.0014 22.405  25.9006 22.7656  25.634 22.9248  L 25.0734 23.2582  Z M 25.3368 23.607  C 27.721 22.2704  27.3072 26.4606  27.3072 26.4606  C 27.1354 25.9126  25.8226 25.876  25.2348 25.0498  C 24.645 24.227  25.1322 23.8026  25.3368 23.607  Z M 28.5346 18.4222  C 28.5330594224663 18.7107240563581  28.2987281692652 18.9438041129365  28.0102 18.9438  L 25.241 18.9438  C 25.2104 18.7832  25.1612 18.622  25.0774 18.4712  C 25.0056 18.3426  24.8232 17.9968  24.5694 17.5134  C 24.0876817999306 16.5973829222536  23.6022778665126 15.6833088484872  23.1132 14.7712  L 28.0102 14.7712  C 28.2986177136526 14.7711958855002  28.5328594246797 15.0041864008179  28.5344 15.2926  L 28.5344 18.4222  Z " fill-rule="nonzero" fill="#d4237a" stroke="none" transform="matrix(1 0 0 1 54 989 )" />
  </g>
</svg>