<?xml version="1.0" encoding="utf-8"?>
<svg version="1.1" xmlns:xlink="http://www.w3.org/1999/xlink" width="23px" height="21px" xmlns="http://www.w3.org/2000/svg">
  <g transform="matrix(1 0 0 1 -59 -1065 )">
    <path d="M 18.325 7.49  C 17.545 8.3675  16.57 9.3425  16.57 9.3425  C 16.57 9.3425  15.595 10.61  16.57 11.585  C 17.4475 12.4625  18.6175 12.17  19.2025 11.39  L 21.1525 9.05  C 21.1525 9.05  22.1275 7.7825  22.225 6.125  C 22.225 4.4675  21.445 2.9075  20.275 2.03  C 19.2025 1.25  17.74 0.275000000000002  15.205 0.470000000000001  C 12.67 0.665000000000001  10.4275 3.005  10 4.76  L 10 15.1925  C 9.94 15.1925  9.355 17.24  7.1125 17.435  C 4.87 17.63  3.9925 15.875  3.9925 14.6075  C 3.9925 13.0475  5.3575 11.975  6.1375 11.6825  C 7.6975 11.195  7.8925 8.5625  5.26 8.7575  C 2.53 9.05  0.774999999999997 12.17  0.774999999999997 14.4125  C 0.774999999999997 16.7525  2.2375 20.165  6.5275 20.36  C 10.8175 20.555  12.9625 17.7275  13.1575 15.7775  C 13.1575 12.755  12.9625 5.2475  12.9625 5.2475  C 12.9625 5.2475  13.9375 2.1275  17.545 3.6875  C 19.5925 4.8575  19.3 6.515  18.325 7.49  Z " fill-rule="nonzero" fill="#ffffff" stroke="none" transform="matrix(1 0 0 1 59 1065 )" />
  </g>
</svg>