<?xml version="1.0" encoding="utf-8"?>
<svg version="1.1" xmlns:xlink="http://www.w3.org/1999/xlink" width="39px" height="40px" xmlns="http://www.w3.org/2000/svg">
  <g transform="matrix(1 0 0 1 -51 -1126 )">
    <path d="M 22.0858828125 19.9830517578125  L 22.0745712890625 19.9830517578125  C 21.5861643303056 20.0139387619036  21.2035265081973 20.415031144657  21.195662109375 20.9043505859375  C 21.2448187583003 21.3630690925117  21.6247595360865 21.7152628476369  22.0858828125 21.72955859375  C 22.75284375 21.72955859375  23.2162734375 21.3169736328125  23.2162734375 20.9043505859375  C 23.2162734375 20.39563671875  22.73867578125 19.9830517578125  22.0858828125 19.9830517578125  Z M 17.8467275390625 14.5852080078125  C 17.8467275390625 15.2832470703125  18.4826103515625 15.6958701171875  19.1495712890625 15.6958701171875  C 19.1735339950784 15.6975017029039  19.1975452417601 15.6983182030542  19.2215634296925 15.6983182030542  C 19.806863373543 15.6983182030542  20.2813427265675 15.2238388500296  20.2813427265675 14.6385389061792  C 20.2813427265675 14.6207534894014  20.280895009232 14.6029708906988  20.28 14.5852080078125  C 20.2816462046907 14.5613330066997  20.2824700388096 14.5374084112698  20.2824700388096 14.51347672374  C 20.2824700388096 13.9375580698686  19.815595723931 13.47068375499  19.2396770700596 13.47068375499  C 19.209599617533 13.47068375499  19.1795362466188 13.4719850482184  19.1495712890625 13.474583984375  C 18.4826103515625 13.474583984375  17.8467275390625 13.8871689453125  17.8467275390625 14.5852080078125  Z M 39 20  C 39 9.23044737829953  30.2695526217005 0.5  19.5 0.5  C 8.73044737829953 0.5  0 9.23044737829953  0 20  C 0 30.7695526217005  8.73044737829953 39.5  19.5 39.5  C 30.2695526217005 39.5  39 30.7695526217005  39 20  Z M 15.8063115234375 24.934337890625  L 15.826078125 24.9400126953125  C 14.7578298738703 24.9313690405742  13.6971502412466 24.7598247744223  12.68063671875 24.431298828125  L 9.458947265625 26.0534931640625  L 10.38024609375 23.32063671875  C 8.1249873046875 21.732376953125  6.7826103515625 19.71740234375  6.7826103515625 17.2841298828125  C 6.7826103515625 12.9630517578125  10.8493505859375 9.6536884765625  15.8063115234375 9.6536884765625  C 20.189583984375 9.6536884765625  24.0980390625 12.259337890625  24.8498173828125 15.9445712890625  C 24.5709747494943 15.8851486167974  24.287016898076 15.8529670671106  24.0019482421875 15.84848046875  C 19.6808701171875 15.84848046875  16.346103515625 19.089974609375  16.346103515625 22.9956875  C 16.3503397395639 23.6397095679312  16.4357934904971 24.2806254962389  16.60044140625 24.903259765625  C 16.3365849882933 24.929401882931  16.07140397219 24.9397796925872  15.8063115234375 24.934337890625  Z M 29.071986328125 28.054337890625  L 29.0748046875 28.048701171875  L 29.7106875 30.335  L 27.297181640625 28.97  C 26.3758828125 29.15936328125  25.4857001953125 29.44759765625  24.5644013671875 29.44759765625  C 20.3082978515625 29.44759765625  16.9339599609375 26.525416015625  16.9339599609375 22.902376953125  C 16.9339599609375 19.279337890625  20.3026611328125 16.35715625  24.5644013671875 16.35715625  C 28.5858955078125 16.3628310546875  32.217427734375 19.2850126953125  32.217427734375 22.9080517578125  C 32.217427734375 24.9400126953125  30.852427734375 26.7515322265625  29.071986328125 28.054337890625  Z M 12.8586884765625 13.471689453125  C 12.1917275390625 13.471689453125  11.4936884765625 13.8843125  11.4936884765625 14.5823515625  C 11.4936884765625 15.280390625  12.1917275390625 15.69583203125  12.8586884765625 15.69583203125  C 12.8709857353868 15.6962472110056  12.8832891248413 15.6964548452222  12.8955933903139 15.6964548452222  C 13.49963487984 15.6964548452222  13.9893072575014 15.2067824675609  13.9893072575014 14.6027409780347  C 13.9893072575014 14.5959440632384  13.9892438980815 14.5891472961011  13.9891171875 14.5823515625  C 13.9895720230448 14.5695981597105  13.9897994950138 14.5568376626469  13.9897994950138 14.5440761518396  C 13.9897994950138 13.9509724891948  13.508993977971 13.4701669721521  12.9158903153263 13.4701669721521  C 12.8968255949321 13.4701669721521  12.8777642548413 13.4706746457419  12.8587265625 13.471689453125  Z M 28.170416015625 20.8930009765625  C 28.170416015625 20.3843251953125  27.692818359375 19.9717021484375  27.0597919921875 19.9717021484375  C 26.5618511946969 19.9855319667542  26.1663128185161 20.394878818804  26.1695712890625 20.8930009765625  C 26.2076560893334 21.3571881859862  26.5940537159702 21.7153672471797  27.0597919921875 21.718208984375  C 27.69563671875 21.718208984375  28.170416015625 21.3056240234375  28.170416015625 20.8930009765625  Z " fill-rule="nonzero" fill="#19d100" stroke="none" transform="matrix(1 0 0 1 51 1126 )" />
  </g>
</svg>