<?xml version="1.0" encoding="utf-8"?>
<svg version="1.1" xmlns:xlink="http://www.w3.org/1999/xlink" width="67px" height="54px" xmlns="http://www.w3.org/2000/svg">
  <g transform="matrix(1 0 0 1 -128 -1413 )">
    <path d="M 37.2724431789998 1.26011595201883  C 39.0238325777041 0.451041072107619  40.965456006508 0  43.0053869582039 0  C 46.8497495014831 0  50.3355787259794 1.59437142344067  52.8572098929553 4.1683423677009  C 55.375517614262 6.74421557887156  56.9338812885048 10.3068897498801  56.9338812885048 14.2380601967002  C 56.9338812885048 18.1672604385057  55.375517614262 21.7299346095144  52.8572098929553 24.3058078206851  C 51.8190249091959 25.3665928703123  50.6237080405441 26.253451331971  49.3152809055645 26.9337216194796  C 53.4058443040109 28.071481046289  57.0567823093483 30.2857876682509  59.9693171559242 33.2590987875147  L 59.9725076637665 33.2642620834147  C 64.312728300876 37.7025225380992  67 43.834004357468  67 50.6033570348001  C 67 50.9214432374825  66.9928878262681 51.2899395132939  66.9718836496394 51.7140091581343  C 66.9570784019357 52.0759305379414  66.9324754840351 52.4373637600503  66.8981031557853 52.7978936685133  C 66.8382811337413 53.5113796361703  66.2194555501542 54.0380358179716  65.5194049544142 53.9752610099241  C 64.8196202343277 53.9107877492779  64.3058820027977 53.2778763729026  64.3657704937549 52.5641865909337  C 64.3936874373754 52.2550682179724  64.4184803420668 51.9331774814691  64.4291818371213 51.6025906676604  L 64.4291818371213 51.5917205710288  C 64.4431403089316 51.3184055788479  64.4503189515768 50.9823837167234  64.4503189515768 50.6033570348001  C 64.4503189515768 44.5492567158276  62.0478665462951 39.068757808484  58.1719977380727 35.1015122284678  C 54.292207263961 31.1380032441688  48.9286977053343 28.6845544963115  43.0055198960307 28.6845544963115  C 41.4574417015069 28.6839765764524  39.9138091202523 28.8538967562276  38.401351203881 29.1913727517601  C 37.7762684539514 29.330567559576  37.1577854154137 29.4990965212027  36.5478655542217 29.696424616506  C 38.1503628178716 30.7036772164624  39.6318649091819 31.8993884647222  40.9620660919255 33.2590987875147  L 40.9689788589172 33.2642620834147  C 45.3093989027669 37.7025225380992  47.9967370708042 43.834004357468  47.9967370708042 50.6033570348001  C 47.9967370708042 50.9214432374825  47.9861020446631 51.2899395132939  47.9684877826169 51.7140091581343  L 47.9651643369478 51.7140091581343  C 47.9497665984918 52.0758057839751  47.9262747726894 52.4371951234887  47.8947072887628 52.7978936685133  C 47.8313624143096 53.5113796361703  47.2120715483288 54.0380358179716  46.5125527038958 53.9752610099241  C 45.8160914294785 53.9107877492779  45.2989632833659 53.2778763729026  45.3621087510788 52.5641865909338  C 45.3902251014395 52.2550682179726  45.4114951537217 51.9331774814691  45.4256530322721 51.6025906676604  L 45.4256530322721 51.5917205710288  C 45.4360886516731 51.3184055788479  45.4430678875782 50.9823837167234  45.4430678875782 50.6033570348001  C 45.4430678875782 44.5492567158276  43.0409478268633 39.068757808484  39.1648796119009 35.1015122284678  C 35.2853550134426 31.1380032441688  29.9214466413357 28.6845544963115  23.9985347076856 28.6845544963115  C 18.0754898362087 28.6845544963115  12.7115814641018 31.1380711822728  8.83212333455687 35.1015122284678  C 4.95605511959442 39.068757808484  2.55413446561971 44.5492567158276  2.55413446561971 50.6033570348001  C 2.55413446561971 50.9931858752511  2.56104723261144 51.3223459888769  2.5714828520124 51.5934190236275  C 2.58916358297208 51.9475124214021  2.61016775960078 52.2819037690318  2.63489419537891 52.5910221419931  C 2.69817260091863 53.3047119239619  2.17758807131025 53.9336149522042  1.48112679689284 53.9949630600688  C 0.781209138979554 54.0576699300124  0.165707001061536 53.5275489049098  0.105752041190894 52.8139949991488  C 0.0707229238385306 52.4238944062821  0.0424736356511709 52.0517294728575  0.0284486949275069 51.7050413284132  C 0.0105020883143784 51.2825342599635  0 50.9106410789548  0 50.6033570348001  C 0 43.834004357468  2.68720523021059 37.7025225380992  7.02769174297363 33.2642620834147  L 7.03467097887872 33.2590987875147  C 9.94348356630519 30.2859235444588  13.5976785483983 28.0716169224969  17.6884413535848 26.9337216194796  C 16.380597757325 26.2542406341114  15.1863452847253 25.3672501291198  14.1501016875168 24.3057398825811  C 11.628138175974 21.7297987333065  10.0700403773847 18.1672604385057  10.0700403773847 14.2379922585963  C 10.0700403773847 10.3068897498801  11.628138175974 6.74421557887156  14.1501016875168 4.1683423677009  C 16.6684094088235 1.59437142344067  20.1537733509261 0  23.9982688320321 0  C 27.6738003353208 0  31.0151261421244 1.45238078619037  33.5019275984881 3.82695339536455  C 34.6139764627624 2.76764081118783  35.8875098429474 1.90066304758825  37.2724431789998 1.26011595201883  Z M 30.308229248306 26.9338574956875  C 31.3992561125717 27.2372026616914  32.467692593447 27.6198070310674  33.5053839819839 28.0787504234114  C 34.5418335383467 27.6201372704895  35.6091122834778 27.2380480917717  36.6990158632526 26.9354200720783  C 35.5343559477818 26.3284826105383  34.4582968805319 25.5583313700608  33.5019940674014 24.6472647311254  C 32.547901795855 25.5591731248127  31.4727201988556 26.3289550591587  30.308229248306 26.9338574956875  Z M 32.0456601752002 22.4614921128214  C 32.1737408827683 22.3292429405924  32.2992368260758 22.1944044596038  32.4220736316828 22.0570565800218  L 32.5134683875832 21.9527715904624  L 32.5451740592664 21.9169002715781  L 32.5840583735949 21.8664901984489  L 32.6014732289011 21.8485545390068  L 32.6261996646792 21.8179823922304  L 32.6684738935902 21.7677081953093  L 32.6894780702189 21.7425710968486  L 32.7107481225012 21.7192683271946  L 32.7528894135854 21.6687903159617  L 32.7776158493635 21.6365197165866  L 32.7917737279139 21.6186519952483  L 32.8337820811714 21.5663396552087  L 32.8654877528547 21.5267996787112  L 32.8726663954999 21.5160654582876  L 32.9146747487574 21.4657233232624  L 32.9497703350231 21.4172834551479  L 32.9533596563458 21.4135468594307  L 32.9920445639342 21.361506271807  L 33.0307959404359 21.3112320748857  L 33.0342523239318 21.3076992934804  L 33.0692149723707 21.259191487262  L 33.1080992866992 21.2068112091184  L 33.1152114604311 21.1961449267986  L 33.1469836010278 21.1547706214945  L 33.1855355707894 21.1008957050642  L 33.1959711901904 21.0828921075181  L 33.2242204783777 21.0487192412325  L 33.2594490024702 20.9967465917126  L 33.2770632645165 20.9697072263415  L 33.2979345033185 20.9427357990743  L 33.333163027411 20.888725006436  L 33.3577565253623 20.8546200782544  L 33.3718479349994 20.8349180281096  L 33.4072093969186 20.7809751735753  L 33.4351263405391 20.7413672589739  L 33.5091062411333 20.6228152675855  L 33.512363217889 20.6192824861802  C 34.3291095816848 19.3506119507022  34.893233541857 17.9298604963383  35.1724907985198 16.438235693041  L 35.1796029722517 16.4222023005095  L 35.2218772011627 16.1632222482614  L 35.2254665224853 16.1525559659417  L 35.2325122273038 16.0986131114073  L 35.243147253445 16.0338001602415  L 35.2466036369408 16.0086630617808  L 35.2535164039326 15.9691230852834  L 35.2606285776644 15.9043101341174  L 35.2676742824829 15.8630717050213  L 35.2711971348922 15.8397689353673  L 35.2782428397107 15.7732575316026  L 35.3170606851258 15.4443012322887  L 35.3170606851258 15.4263655728465  L 35.3276292423536 15.313112753566  L 35.3310856258494 15.280706277983  L 35.3344090715185 15.2449028972027  L 35.3415212452504 15.1802258222446  L 35.3415212452504 15.1317180160261  L 35.3451770354864 15.1118800896734  L 35.3522227403049 14.984224392356  L 35.355546185974 14.9787893440402  L 35.362857766446 14.8459703508228  L 35.362857766446 14.835304068503  L 35.3662476810285 14.7776925563555  L 35.3662476810285 14.7111811525908  L 35.3697705334378 14.6878783829368  L 35.3697705334378 14.6430392343314  L 35.3730939791069 14.5764598924629  L 35.3730939791069 14.5079782836838  L 35.3768162382563 14.4414668799191  L 35.3768162382563 14.0329550608827  L 35.3730939791069 13.966443657118  L 35.3730939791069 13.8982338007547  L 35.3697705334378 13.83172239699  L 35.3697705334378 13.7866794340729  L 35.3662476810285 13.7633766644188  L 35.3662476810285 13.6968652606542  L 35.3629242353595 13.6393216866106  L 35.3629242353595 13.6303538568896  L 35.3556126548874 13.4954967205537  L 35.3522892092183 13.4900616722379  L 35.3451770354864 13.3606395842178  L 35.3415212452504 13.3427039247757  L 35.3415212452504 13.2942640566612  L 35.334475540432 13.2294511054952  L 35.3311520947628 13.1952103011056  L 35.3276292423536 13.1629397017305  L 35.3169942162124 13.0478525536434  L 35.3169942162124 13.0299168942012  L 35.2782428397107 12.7010964710952  L 35.2711971348922 12.6364193961372  L 35.2676742824829 12.6112822976766  L 35.2606285776644 12.5698400542686  L 35.2535164039326 12.5050950412065  L 35.2466036369408 12.465623002813  L 35.2430807845316 12.4404859043524  L 35.2325122273038 12.3756729531865  L 35.2254665224853 12.3217980367561  L 35.2218772011627 12.3109279401245  L 35.1796029722517 12.0521517021884  L 35.1724907985198 12.0361183096567  C 34.8911943570868 10.5171581815978  34.3144435956706 9.10431737190485  33.512363217889 7.85683790722032  L 33.5091062411333 7.85140285890449  L 33.4351263405391 7.73454932011476  L 33.4072093969186 7.69507728172121  L 33.3718479349994 7.64120236529085  L 33.357690056449 7.61946217202767  L 33.3332294963243 7.58719157265259  L 33.2979345033185 7.53324871811816  L 33.2770632645165 7.50451090014836  L 33.2595154713837 7.47923792547989  L 33.2242204783777 7.42536300904953  L 33.1959711901904 7.39112220465996  L 33.1855355707894 7.37318654521786  L 33.1469836010278 7.32087420517816  L 33.1152114604311 7.27970371418605  L 33.1080992866992 7.2688336175544  L 33.0692149723707 7.21672509182668  L 33.0342523239318 7.16645089490543  L 33.0307959404359 7.16461656609884  L 32.9920445639342 7.11244010226717  L 32.9533596563458 7.06026363843549  L 32.9497703350231 7.05856518583681  L 32.9146747487574 7.00998944151425  L 32.8726663954999 6.95781297768258  L 32.8654877528547 6.94714669536278  L 32.8337820811714 6.90774259507331  L 32.7917737279139 6.85733252194416  L 32.7776158493635 6.83939686250206  L 32.7528894135854 6.80699038691908  L 32.7107481225012 6.75671618999795  L 32.6894780702189 6.73327754413596  L 32.6684738935902 6.70637405497275  L 32.6261996646792 6.65609985805163  L 32.6014732289011 6.62736204008183  L 32.5840583735949 6.60745617562512  L 32.5451740592664 6.55915218371849  L 32.5134683875832 6.52124272171573  L 32.4220736316828 6.41885999906676  C 32.3001530652378 6.28062023996991  32.1746143014875 6.14575956512534  32.0455937062867 6.0144244662672  C 29.9880484925446 3.90970200597261  27.1425807795712 2.60821174864969  23.9982688320321 2.60821174864969  C 20.8572138612486 2.60821174864969  18.011879086102 3.90956612976471  15.9543338723598 6.0144244662672  C 13.8966557207909 8.11758435017089  12.6198543636345 11.025810765853  12.6198543636345 14.2380601967002  C 12.6198543636345 17.4482714844291  13.8966557207909 20.3566337763189  15.9543338723598 22.4614921128214  C 18.011879086102 24.5645161205173  20.8572138612486 25.8679086447507  23.9982688320321 25.8679086447507  C 27.1425807795712 25.8679086447507  29.9880484925446 24.5645161205173  32.0456601752002 22.4614921128214  Z M 38.3203920673816 3.63394124204953  C 37.1667576067223 4.168206491493  36.1150864591911 4.89446482269208  35.2006071488804 5.77344801156532  C 36.5864175239833 7.68780790459879  37.5149217750176 9.96876180653338  37.8173553309061 12.4492499197617  L 37.8281897637873 12.5283978108605  L 37.8384924453615 12.6021785917476  L 37.8384924453615 12.6074777638555  L 37.8703310548715 12.9310669529575  L 37.8737874383674 12.9616390997339  L 37.8772438218633 13.0100789678486  L 37.8843559955952 13.0927596403527  L 37.8876794412643 13.1413353846753  L 37.891468169327 13.1719075314516  L 37.894924552823 13.2546561420597  L 37.9020367265548 13.322865998423  L 37.9020367265548 13.3355024857572  L 37.9054931100507 13.4164847056628  L 37.9089494935466 13.4971951731524  L 37.9089494935466 13.5044645502748  L 37.9160616672784 13.5798758456565  L 37.9191857062074 13.6627603324726  L 37.9191857062074 13.6878294928292  L 37.9231738410103 13.7435387380661  L 37.9231738410103 13.8262194105702  L 37.9262314110259 13.8694280446809  L 37.9262314110259 13.9898143648759  L 37.9299536701753 14.0527250491314  L 37.9299536701753 14.4212213249428  L 37.9262314110259 14.4841999473021  L 37.9262314110259 14.6045862674972  L 37.923107372097 14.6476590253999  L 37.923107372097 14.7302038216961  L 37.919119237294 14.7878153338436  L 37.919119237294 14.8111181034976  L 37.9160616672784 14.8937987760018  L 37.9089494935466 14.9692100713835  L 37.9089494935466 14.9746451196994  L 37.9054931100507 15.0573937303074  L 37.9020367265548 15.1382400740051  L 37.9020367265548 15.1507406851314  L 37.894924552823 15.2190184795986  L 37.891468169327 15.3018350283108  L 37.8877459101777 15.3322712988792  L 37.8843559955952 15.3808470432017  L 37.8772438218633 15.4634597776018  L 37.8737874383674 15.513869850731  L 37.8703310548715 15.5426076687008  L 37.8384924453615 15.865993043491  L 37.8384924453615 15.8714280918068  L 37.8281897637873 15.9452088726939  L 37.8173553309061 16.0260552163914  C 37.5205804321666 18.4441306327345  36.6193744749905 20.7432948076232  35.2006071488804 22.7019250626918  C 36.1150864591911 23.5809082515649  37.1667576067223 24.3070986446602  38.3203920673816 24.8391898747772  C 39.7450202878997 25.4987329878999  41.3312344368495 25.8673651399192  43.0053204892905 25.8673651399192  C 46.1462425222472 25.8673651399192  48.9915772973938 24.5640405537897  51.0492554489628 22.4610165460938  C 53.1105229218544 20.3561582095914  54.3836020198613 17.4477959177014  54.3836020198613 14.2375166918686  C 54.3836020198613 11.0253351991253  53.1105229218544 8.11710878344334  51.0492554489628 6.01394889953954  C 48.9915772973938 3.90922643924495  46.1462425222472 2.60773618192203  43.0053204892905 2.60773618192203  C 41.3312344368495 2.60773618192203  39.7450202878997 2.97609658152565  38.3203920673816 3.63394124204953  Z " fill-rule="nonzero" fill="#ffffff" stroke="none" transform="matrix(1 0 0 1 128 1413 )" />
  </g>
</svg>