<?xml version="1.0" encoding="utf-8"?>
<svg version="1.1" xmlns:xlink="http://www.w3.org/1999/xlink" width="67px" height="67px" xmlns="http://www.w3.org/2000/svg">
  <g transform="matrix(1 0 0 1 -127 -1693 )">
    <path d="M 64.0178935932035 67  L 39.6030871920942 67  C 37.8997285876983 67  36.5748941176126 65.6760762050782  36 63.97388846875  L 36 39.5758645097657  C 36.5748941176126 37.8736767734375  37.8997285876983 36.5497529785156  39.6030871920942 36  L 63.9705781091521 36  C 65.673936713548 36.5497529785156  66.9987711836337 37.8736767734375  67 39.5758645097657  L 67 63.9266055087891  C 67.0460866676851 65.6760762050782  65.7212521975995 67  64.0178935932035 67  Z M 52.3782765941141 32.1524346923828  C 51.3846507742873 33.1453775058594  49.8232386875202 33.1453775058594  48.9242439012709 32.1524346923828  L 34.8715355786913 18.2039520166015  C 33.8779097588644 17.2110092031249  33.8779097588644 15.6506704121093  34.8715355786913 14.7522935839844  L 48.829612933168 0.803810842773487  C 49.8232387529949 -0.189131970703102  51.3846508397619 -0.189131970703102  52.2836456260113 0.803810842773487  L 66.241722980488 14.7522935839844  C 67.2353488003149 15.745236397461  67.2353488003149 17.3055751884766  66.241722980488 18.2039520166015  L 52.3782765941141 32.1524346923828  Z M 27.442999475591 67  L 3.02819307448165 67  C 1.32483447008572 67  0 65.6760762050782  0 63.97388846875  L 0 39.5758645097657  C 0 37.8736767734375  1.32483447008572 36.5497529785156  3.02819307448165 36  L 27.442999475591 36  C 29.1463580799868 36.5497529785156  30.4711925500726 37.8736767734375  31 39.5758645097657  L 31 63.9266055087891  C 30.4711925500726 65.6760762050782  29.1463580799868 67  27.442999475591 67  Z M 27.442999475591 30.4502470214844  L 27.442999475591 31  L 3.02819307448165 31  C 1.32483447008572 30.4502470214844  0 29.1263232265625  0 27.4241354902343  L 0 3.02611153124997  C 0 1.32392379492182  1.32483447008572 0  3.02819307448165 0  L 27.442999475591 0  C 29.1463580799868 0  30.4711925500726 1.32392379492182  31 3.02611153124997  L 31 27.4241354902343  C 30.4711925500726 29.1263232265625  29.1463580799868 30.4502470214844  27.442999475591 30.4502470214844  Z " fill-rule="nonzero" fill="#ffffff" stroke="none" transform="matrix(1 0 0 1 127 1693 )" />
  </g>
</svg>