<?xml version="1.0" encoding="utf-8"?>
<svg version="1.1" xmlns:xlink="http://www.w3.org/1999/xlink" width="12px" height="12px" viewBox="1185 1076.5  12 12" xmlns="http://www.w3.org/2000/svg">
  <path d="M 1191 1076.5  C 1194.36 1076.5  1197 1079.14  1197 1082.5  C 1197 1085.86  1194.36 1088.5  1191 1088.5  C 1187.64 1088.5  1185 1085.86  1185 1082.5  C 1185 1079.14  1187.64 1076.5  1191 1076.5  Z " fill-rule="nonzero" fill="#f0f0f0" stroke="none" />
  <path d="M 1191 1077  C 1194.08 1077  1196.5 1079.42  1196.5 1082.5  C 1196.5 1085.58  1194.08 1088  1191 1088  C 1187.92 1088  1185.5 1085.58  1185.5 1082.5  C 1185.5 1079.42  1187.92 1077  1191 1077  Z " stroke-width="1" stroke="#797979" fill="none" />
  <path d="M 1191 1085.5  C 1189.32 1085.5  1188 1084.18  1188 1082.5  C 1188 1080.82  1189.32 1079.5  1191 1079.5  C 1192.68 1079.5  1194 1080.82  1194 1082.5  C 1194 1084.18  1192.68 1085.5  1191 1085.5  " fill-rule="nonzero" fill="#797979" stroke="none" />
</svg>