<?xml version="1.0" encoding="utf-8"?>
<svg version="1.1" xmlns:xlink="http://www.w3.org/1999/xlink" width="12px" height="12px" viewBox="1349 1076.5  12 12" xmlns="http://www.w3.org/2000/svg">
  <path d="M 1355 1076.5  C 1358.36 1076.5  1361 1079.14  1361 1082.5  C 1361 1085.86  1358.36 1088.5  1355 1088.5  C 1351.64 1088.5  1349 1085.86  1349 1082.5  C 1349 1079.14  1351.64 1076.5  1355 1076.5  Z " fill-rule="nonzero" fill="#f0f0f0" stroke="none" />
  <path d="M 1355 1077  C 1358.08 1077  1360.5 1079.42  1360.5 1082.5  C 1360.5 1085.58  1358.08 1088  1355 1088  C 1351.92 1088  1349.5 1085.58  1349.5 1082.5  C 1349.5 1079.42  1351.92 1077  1355 1077  Z " stroke-width="1" stroke="#797979" fill="none" />
  <path d="M 1355 1085.5  C 1353.32 1085.5  1352 1084.18  1352 1082.5  C 1352 1080.82  1353.32 1079.5  1355 1079.5  C 1356.68 1079.5  1358 1080.82  1358 1082.5  C 1358 1084.18  1356.68 1085.5  1355 1085.5  " fill-rule="nonzero" fill="#797979" stroke="none" />
</svg>