<?xml version="1.0" encoding="utf-8"?>
<svg version="1.1" xmlns:xlink="http://www.w3.org/1999/xlink" width="12px" height="12px" viewBox="1185 876.5  12 12" xmlns="http://www.w3.org/2000/svg">
  <path d="M 1191 876.5  C 1194.36 876.5  1197 879.14  1197 882.5  C 1197 885.86  1194.36 888.5  1191 888.5  C 1187.64 888.5  1185 885.86  1185 882.5  C 1185 879.14  1187.64 876.5  1191 876.5  Z " fill-rule="nonzero" fill="#ffffff" stroke="none" />
  <path d="M 1191 877  C 1194.08 877  1196.5 879.42  1196.5 882.5  C 1196.5 885.58  1194.08 888  1191 888  C 1187.92 888  1185.5 885.58  1185.5 882.5  C 1185.5 879.42  1187.92 877  1191 877  Z " stroke-width="1" stroke="#797979" fill="none" />
  <path d="M 1191 885.5  C 1189.32 885.5  1188 884.18  1188 882.5  C 1188 880.82  1189.32 879.5  1191 879.5  C 1192.68 879.5  1194 880.82  1194 882.5  C 1194 884.18  1192.68 885.5  1191 885.5  " fill-rule="nonzero" fill="#797979" stroke="none" />
</svg>