<?xml version="1.0" encoding="utf-8"?>
<svg version="1.1" xmlns:xlink="http://www.w3.org/1999/xlink" width="6px" height="6px" xmlns="http://www.w3.org/2000/svg">
  <g transform="matrix(1 0 0 1 -1188 -879 )">
    <path d="M 1191 879  C 1192.68 879  1194 880.32  1194 882  C 1194 883.68  1192.68 885  1191 885  C 1189.32 885  1188 883.68  1188 882  C 1188 880.32  1189.32 879  1191 879  Z " fill-rule="nonzero" fill="#797979" stroke="none" />
    <path d="M 1191 879.5  C 1192.4 879.5  1193.5 880.6  1193.5 882  C 1193.5 883.4  1192.4 884.5  1191 884.5  C 1189.6 884.5  1188.5 883.4  1188.5 882  C 1188.5 880.6  1189.6 879.5  1191 879.5  Z " stroke-width="1" stroke="#797979" fill="none" />
  </g>
</svg>