<?xml version="1.0" encoding="utf-8"?>
<svg version="1.1" xmlns:xlink="http://www.w3.org/1999/xlink" width="12px" height="12px" viewBox="1894 739.5  12 12" xmlns="http://www.w3.org/2000/svg">
  <path d="M 1900 739.5  C 1903.36 739.5  1906 742.14  1906 745.5  C 1906 748.86  1903.36 751.5  1900 751.5  C 1896.64 751.5  1894 748.86  1894 745.5  C 1894 742.14  1896.64 739.5  1900 739.5  Z " fill-rule="nonzero" fill="#ffffff" stroke="none" />
  <path d="M 1900 740  C 1903.08 740  1905.5 742.42  1905.5 745.5  C 1905.5 748.58  1903.08 751  1900 751  C 1896.92 751  1894.5 748.58  1894.5 745.5  C 1894.5 742.42  1896.92 740  1900 740  Z " stroke-width="1" stroke="#797979" fill="none" />
  <path d="M 1900 748.5  C 1898.32 748.5  1897 747.18  1897 745.5  C 1897 743.82  1898.32 742.5  1900 742.5  C 1901.68 742.5  1903 743.82  1903 745.5  C 1903 747.18  1901.68 748.5  1900 748.5  " fill-rule="nonzero" fill="#797979" stroke="none" />
</svg>