<?xml version="1.0" encoding="utf-8"?>
<svg version="1.1" xmlns:xlink="http://www.w3.org/1999/xlink" width="15px" height="15px" xmlns="http://www.w3.org/2000/svg">
  <g transform="matrix(1 0 0 1 -1251 -281 )">
    <path d="M 1258.5 281  C 1262.7 281  1266 284.3  1266 288.5  C 1266 292.7  1262.7 296  1258.5 296  C 1254.3 296  1251 292.7  1251 288.5  C 1251 284.3  1254.3 281  1258.5 281  Z " fill-rule="nonzero" fill="#ff0000" stroke="none" />
    <path d="M 1258.5 281.5  C 1262.42 281.5  1265.5 284.58  1265.5 288.5  C 1265.5 292.42  1262.42 295.5  1258.5 295.5  C 1254.58 295.5  1251.5 292.42  1251.5 288.5  C 1251.5 284.58  1254.58 281.5  1258.5 281.5  Z " stroke-width="1" stroke="#ff0000" fill="none" />
  </g>
</svg>