<?xml version="1.0" encoding="utf-8"?>
<svg version="1.1" xmlns:xlink="http://www.w3.org/1999/xlink" width="120px" height="120px" xmlns="http://www.w3.org/2000/svg">
  <g transform="matrix(1 0 0 1 -2833 -994 )">
    <path d="M 2834 999  A 4 4 0 0 1 2838 995 L 2948 995  A 4 4 0 0 1 2952 999 L 2952 1109  A 4 4 0 0 1 2948 1113 L 2838 1113  A 4 4 0 0 1 2834 1109 L 2834 999  Z " fill-rule="nonzero" fill="#ffffff" stroke="none" />
    <path d="M 2833.5 999  A 4.5 4.5 0 0 1 2838 994.5 L 2948 994.5  A 4.5 4.5 0 0 1 2952.5 999 L 2952.5 1109  A 4.5 4.5 0 0 1 2948 1113.5 L 2838 1113.5  A 4.5 4.5 0 0 1 2833.5 1109 L 2833.5 999  Z " stroke-width="1" stroke-dasharray="9,4" stroke="#dddddd" fill="none" stroke-dashoffset="0.5" />
  </g>
</svg>